<svg xmlns="http://www.w3.org/2000/svg" viewBox="0 0 512 512">
  <defs>
    <linearGradient id="bg" x1="0%" y1="0%" x2="100%" y2="100%">
      <stop offset="0%" style="stop-color:#164365"/>
      <stop offset="100%" style="stop-color:#29b5e8"/>
    </linearGradient>
  </defs>
  <rect width="512" height="512" rx="96" fill="url(#bg)"/>
  <!-- Snowflake icon -->
  <g transform="translate(256,256)" stroke="white" stroke-width="24" stroke-linecap="round" fill="none">
    <!-- Vertical line -->
    <line x1="0" y1="-120" x2="0" y2="120"/>
    <!-- Top branches -->
    <line x1="-30" y1="-90" x2="0" y2="-120"/>
    <line x1="30" y1="-90" x2="0" y2="-120"/>
    <!-- Bottom branches -->
    <line x1="-30" y1="90" x2="0" y2="120"/>
    <line x1="30" y1="90" x2="0" y2="120"/>
    <!-- Diagonal line 1 -->
    <line x1="-104" y1="-60" x2="104" y2="60"/>
    <!-- D1 top branches -->
    <line x1="-104" y1="-60" x2="-74" y2="-60"/>
    <line x1="-104" y1="-60" x2="-104" y2="-30"/>
    <!-- D1 bottom branches -->
    <line x1="104" y1="60" x2="74" y2="60"/>
    <line x1="104" y1="60" x2="104" y2="30"/>
    <!-- Diagonal line 2 -->
    <line x1="104" y1="-60" x2="-104" y2="60"/>
    <!-- D2 top branches -->
    <line x1="104" y1="-60" x2="74" y2="-60"/>
    <line x1="104" y1="-60" x2="104" y2="-30"/>
    <!-- D2 bottom branches -->
    <line x1="-104" y1="60" x2="-74" y2="60"/>
    <line x1="-104" y1="60" x2="-104" y2="30"/>
  </g>
  <!-- SF text -->
  <text x="256" y="380" text-anchor="middle" fill="white" font-family="Inter, Arial, sans-serif" font-weight="700" font-size="64" letter-spacing="8">SF</text>
</svg>
